<svg width="15" height="14" viewBox="0 0 15 14" fill="none" xmlns="http://www.w3.org/2000/svg">
<path fill-rule="evenodd" clip-rule="evenodd" d="M12.5833 1.75C13.2276 1.75 13.7499 2.27233 13.7499 2.91667V11.0833C13.7499 11.7277 13.2276 12.25 12.5833 12.25H3.24992C2.60559 12.25 2.08325 11.7277 2.08325 11.0833V2.91667C2.08325 2.27233 2.60559 1.75 3.24992 1.75H12.5833ZM12.5833 2.91667H3.24992V11.0833H12.5833V2.91667ZM10.8333 8.75C11.1554 8.75 11.4166 9.01116 11.4166 9.33333C11.4166 9.6325 11.1914 9.87905 10.9013 9.91274L10.8333 9.91667H4.99992C4.67776 9.91667 4.41659 9.65551 4.41659 9.33333C4.41659 9.03417 4.64178 8.78762 4.93189 8.75392L4.99992 8.75H10.8333ZM6.74992 4.08333C7.39427 4.08333 7.91659 4.60567 7.91659 5.25V6.41667C7.91659 7.06102 7.39427 7.58333 6.74992 7.58333H5.58325C4.93892 7.58333 4.41659 7.06102 4.41659 6.41667V5.25C4.41659 4.60567 4.93892 4.08333 5.58325 4.08333H6.74992ZM10.8333 6.41667C11.1554 6.41667 11.4166 6.67782 11.4166 7C11.4166 7.32218 11.1554 7.58333 10.8333 7.58333H9.08325C8.76108 7.58333 8.49992 7.32218 8.49992 7C8.49992 6.67782 8.76108 6.41667 9.08325 6.41667H10.8333ZM6.74992 5.25H5.58325V6.41667H6.74992V5.25ZM10.8333 4.08333C11.1554 4.08333 11.4166 4.3445 11.4166 4.66667C11.4166 4.96582 11.1914 5.21238 10.9013 5.24608L10.8333 5.25H9.08325C8.76108 5.25 8.49992 4.98883 8.49992 4.66667C8.49992 4.36751 8.7251 4.12095 9.01522 4.08726L9.08325 4.08333H10.8333Z" fill="black"/>
</svg>
