<svg width="40" height="52" viewBox="0 0 40 52" fill="none" xmlns="http://www.w3.org/2000/svg">
<g clip-path="url(#clip0_52_1795)">
<path d="M40 45.1116C34.196 49.6166 27.1744 52.0312 19.9718 51.9987C12.7692 51.9662 5.76739 49.4884 0 44.9312L8.59384 40.8313C9.00188 40.6363 9.39443 40.407 9.76769 40.1456C9.88 40.066 9.99385 39.9831 10.1015 39.897C11.0307 39.176 11.8007 38.2507 12.3585 37.1848C12.7745 36.3759 13.0521 35.4957 13.1785 34.5848C13.265 33.9934 13.3087 33.3958 13.3092 32.7973C13.3092 32.175 13.2938 31.5542 13.2723 30.9318C13.26 30.5256 13.2492 30.1193 13.2446 29.7115C13.2374 29.1427 13.2318 28.5729 13.2277 28.002L13.5815 28.1823L14.5046 28.6698L14.9308 28.743L19.8538 29.5944L25.3508 30.5467L25.5169 36.2976L25.5723 38.1777L25.5985 39.091V39.1462L25.7754 39.221L27.7308 40.0335L40 45.1116Z" fill="#FFC6BF"/>
<path d="M25.3539 39.3363C24.5601 39.3692 23.7712 39.1903 23.06 38.8163C21.4815 37.8653 19.98 36.7782 18.5708 35.5663C17.1754 34.4776 13.4939 30.9838 13.4939 30.9838C13.4816 30.5776 13.4585 30.3078 13.4524 29.9048C13.4452 29.3361 13.4395 28.7662 13.4354 28.1953L13.7754 28.3757L14.66 28.8632L15.0708 28.9363L19.8139 29.7878L25.1093 30.7401L25.2631 36.4909L25.3154 38.3711L25.3416 39.2843V39.338L25.3539 39.3363Z" fill="black"/>
<path d="M40 45.1113C34.196 49.6163 27.1744 52.0308 19.9718 51.9984C12.7692 51.9659 5.76739 49.4881 0 44.9309L8.59384 40.831C9.00194 40.6355 9.39449 40.4057 9.76769 40.1437C9.88 40.064 9.99385 39.9811 10.1015 39.895C14.2554 42.9078 19.9369 44.8074 24.8477 42.5584C26.0284 42.0453 27.0326 41.1638 27.7262 40.0315L40 45.1113Z" fill="black"/>
<path d="M36.9539 9.72379C36.9385 9.82941 36.92 9.93342 36.8985 10.039C36.7805 10.5734 36.5909 11.0872 36.3354 11.5649L36.3216 11.5893C36.2246 11.7697 36.12 11.9484 36.0139 12.1288C35.7157 12.5902 35.3905 13.0315 35.04 13.4499L34.8308 13.6969C34.6893 13.8594 34.5462 14.0219 34.4031 14.1844C34.7893 14.1465 35.1744 14.2682 35.4774 14.524C35.7803 14.7798 35.9776 15.1497 36.0277 15.5559C36.1011 16.3777 35.9085 17.2014 35.4816 17.8927C34.7614 19.0433 33.9437 20.1225 33.0385 21.1167C32.4123 21.9405 32.0646 22.9139 31.3831 23.7004L31.3323 23.7589C29.5308 25.7577 26.6862 26.224 24.3169 27.0788C23.4662 27.3875 14.2416 30.1549 14.2416 30.7594C13.6222 29.9558 12.9375 29.2109 12.1954 28.5332C10.1742 26.5643 8.79547 23.9698 8.25704 21.1219C7.71862 18.2739 8.0482 15.3191 9.19849 12.6813C11.8139 6.84104 17.7416 2.67292 23.3908 0.670916C25.1153 -0.130816 27.0668 -0.195468 28.8354 0.490541C30.5093 1.35667 31.3431 4.04279 29.9554 5.35579C30.8287 4.65802 31.9149 4.32477 33.0062 4.41979C34.0144 4.48634 34.9654 4.938 35.6816 5.69054C36.249 6.29236 36.657 7.04097 36.8646 7.86154C37.0177 8.46882 37.0481 9.1033 36.9539 9.72379Z" fill="black"/>
<path d="M36.9554 9.72385C36.94 9.82947 36.9215 9.93348 36.9 10.0391C36.8846 10.07 36.8692 10.1025 36.8538 10.1382C36.6615 10.6013 36.5738 11.1019 36.3431 11.565L36.3292 11.5894C36.2323 11.7697 36.1292 11.9485 36.0215 12.1289C35.7263 12.5925 35.4009 13.034 35.0477 13.45L34.8323 13.697C34.6908 13.8595 34.5477 14.022 34.4046 14.1845C34.7908 14.1466 35.1759 14.2683 35.4789 14.5241C35.7818 14.7798 35.9791 15.1497 36.0292 15.556C36.1026 16.3777 35.91 17.2014 35.4831 17.8927C34.7616 19.0447 33.9424 20.1249 33.0354 21.12C32.4092 21.9439 32.0615 22.9172 31.38 23.7037C30.5883 22.7088 30.0841 21.4943 29.9277 20.2051C29.6492 17.8228 29.8185 15.2245 29.7415 12.813C29.6938 11.2969 29.2308 11.0157 30.0923 9.78885C30.7844 8.8866 31.585 8.08358 32.4738 7.4001C33.2032 6.95282 34.0607 6.79821 34.8892 6.9646C35.6114 7.06889 36.2929 7.37962 36.86 7.86323C37.0148 8.46954 37.0473 9.10343 36.9554 9.72385Z" fill="black"/>
<path d="M11.4338 26.3668C13.0312 26.3668 14.3261 24.9991 14.3261 23.3118C14.3261 21.6246 13.0312 20.2568 11.4338 20.2568C9.83643 20.2568 8.5415 21.6246 8.5415 23.3118C8.5415 24.9991 9.83643 26.3668 11.4338 26.3668Z" fill="#FFC6BF"/>
<path d="M12.397 26.0469C13.827 26.0469 14.9862 24.8225 14.9862 23.312C14.9862 21.8016 13.827 20.5771 12.397 20.5771C10.967 20.5771 9.80774 21.8016 9.80774 23.312C9.80774 24.8225 10.967 26.0469 12.397 26.0469Z" fill="black"/>
<path d="M12.9462 20.4586L13.6908 30.3435L24.9954 37.6901C25.7792 37.9988 26.6438 37.9879 27.4204 37.6595C28.197 37.3311 28.8298 36.7088 29.1954 35.914C30.0565 34.0569 30.8031 32.143 31.4308 30.1842C31.9394 28.7884 32.2504 27.3209 32.3538 25.8292C32.3391 24.3058 32.0504 22.7993 31.5031 21.3897C31.4523 21.2435 31.18 20.7966 31.2031 20.6439C31.3928 19.4457 31.581 18.2513 31.7677 17.0607C32.09 15.7154 32.1482 14.3146 31.9385 12.9446C31.5754 11.3879 30.4631 10.7249 29.5477 9.56299C27.1385 12.8406 23.1769 14.6947 19.7185 16.5716C17.9492 17.5434 12.9462 20.4586 12.9462 20.4586Z" fill="#FFC6BF"/>
<path d="M31.7323 29.0254C31.2209 31.5208 30.5001 33.963 29.5785 36.3233C29.1262 37.1618 28.5016 37.3243 27.4954 37.581C26.2575 37.8803 24.9727 37.8915 23.7302 37.614C22.4878 37.3365 21.3173 36.7769 20.3 35.9739L13.6493 30.3156C13.5477 29.2578 13.4785 29.0953 13.4293 28.0309C13.3428 27.5572 13.322 27.0728 13.3677 26.5928C13.3975 26.8423 13.4983 27.0764 13.657 27.2639C14.3812 28.5432 15.4534 29.5624 16.7339 30.1889C18.1377 30.7449 19.6917 30.7 21.0647 30.0638C22.237 29.456 23.3862 28.663 24.6031 28.1642C25.4167 27.8091 26.2946 27.6487 27.1739 27.6945C28.2113 27.8195 29.1701 28.3394 29.8708 29.157C30.1464 29.4498 30.5052 29.6393 30.8923 29.6965C31.3354 29.703 31.3569 29.3228 31.7323 29.0254Z" fill="black"/>
<path d="M21.1553 20.0669C21.362 20.0765 21.5573 20.1699 21.7004 20.3278C21.8434 20.4857 21.9233 20.6958 21.9233 20.9143C21.9233 21.1329 21.8434 21.343 21.7004 21.5009C21.5573 21.6587 21.362 21.7522 21.1553 21.7618H21.1077C20.901 21.7522 20.7057 21.6587 20.5626 21.5009C20.4196 21.343 20.3397 21.1329 20.3397 20.9143C20.3397 20.6958 20.4196 20.4857 20.5626 20.3278C20.7057 20.1699 20.901 20.0765 21.1077 20.0669H21.1553Z" fill="#000A18"/>
<path d="M30.023 19.8218C30.2205 19.8218 30.4099 19.9046 30.5496 20.0521C30.6892 20.1996 30.7677 20.3997 30.7677 20.6083C30.7677 20.8169 30.6892 21.0169 30.5496 21.1644C30.4099 21.3119 30.2205 21.3948 30.023 21.3948H29.98C29.7825 21.3948 29.5931 21.3119 29.4534 21.1644C29.3138 21.0169 29.2354 20.8169 29.2354 20.6083C29.2354 20.3997 29.3138 20.1996 29.4534 20.0521C29.5931 19.9046 29.7825 19.8218 29.98 19.8218H30.023Z" fill="#000A18"/>
<path d="M25.6939 19.5601C25.68 19.6234 27.9677 26.0601 27.9677 26.0601L24.9154 26.2226" stroke="#000A18" stroke-width="0.4" stroke-miterlimit="10"/>
<path d="M18.2369 18.3671C19.8121 18.0238 21.4322 17.9759 23.0231 18.2258" stroke="#000A18" stroke-width="0.4" stroke-miterlimit="10"/>
<path d="M28.6584 18.3849C29.631 18.1465 30.6333 18.073 31.6277 18.1671" stroke="#000A18" stroke-width="0.4" stroke-miterlimit="10"/>
<path d="M24.7308 29.5243C25.687 29.8734 26.7232 29.8933 27.6908 29.5812C27.7939 29.5471 27.7508 29.3732 27.6462 29.4008C26.708 29.7053 25.7024 29.6859 24.7754 29.3456C24.6708 29.3082 24.6216 29.4805 24.7292 29.526L24.7308 29.5243Z" fill="#FFC6BF"/>
</g>
<defs>
<clipPath id="clip0_52_1795">
<rect width="40" height="52" fill="white"/>
</clipPath>
</defs>
</svg>
